{
  "accessors": [
    {
      "bufferView": 0,
      "componentType": 5125,
      "count": 228,
      "type": "SCALAR"
    },
    {
      "bufferView": 1,
      "componentType": 5126,
      "count": 72,
      "max": [
        1.0,
        0.999691784381866,
        0.5
      ],
      "min": [
        -2.98023223876953e-08,
        -0.00030815601348877,
        -0.5
      ],
      "type": "VEC3"
    },
    {
      "bufferView": 2,
      "componentType": 5126,
      "count": 72,
      "type": "VEC3"
    },
    {
      "bufferView": 3,
      "componentType": 5126,
      "count": 72,
      "type": "VEC2"
    },
    {
      "bufferView": 4,
      "componentType": 5125,
      "count": 180,
      "type": "SCALAR"
    },
    {
      "bufferView": 5,
      "componentType": 5126,
      "count": 64,
      "max": [
        1.00000381469727,
        0.99999988079071,
        0.994517683982849
      ],
      "min": [
        -0.978145599365234,
        -1.0,
        -0.994522333145142
      ],
      "type": "VEC3"
    },
    {
      "bufferView": 6,
      "componentType": 5126,
      "count": 64,
      "type": "VEC3"
    },
    {
      "bufferView": 7,
      "componentType": 5126,
      "count": 64,
      "type": "VEC2"
    },
    {
      "bufferView": 8,
      "componentType": 5125,
      "count": 1260,
      "type": "SCALAR"
    },
    {
      "bufferView": 9,
      "componentType": 5126,
      "count": 250,
      "max": [
        0.994523048400879,
        0.999999165534973,
        0.989073634147644
      ],
      "min": [
        -0.972787857055664,
        -1.00000154972076,
        -0.989073753356934
      ],
      "type": "VEC3"
    },
    {
      "bufferView": 10,
      "componentType": 5126,
      "count": 250,
      "type": "VEC3"
    },
    {
      "bufferView": 11,
      "componentType": 5126,
      "count": 250,
      "type": "VEC2"
    },
    {
      "bufferView": 12,
      "componentType": 5125,
      "count": 1260,
      "type": "SCALAR"
    },
    {
      "bufferView": 13,
      "componentType": 5126,
      "count": 250,
      "max": [
        0.994523048400879,
        0.999999165534973,
        0.989073753356934
      ],
      "min": [
        -0.972787857055664,
        -1.00000154972076,
        -0.989073634147644
      ],
      "type": "VEC3"
    },
    {
      "bufferView": 14,
      "componentType": 5126,
      "count": 250,
      "type": "VEC3"
    },
    {
      "bufferView": 15,
      "componentType": 5126,
      "count": 250,
      "type": "VEC2"
    }
  ],
  "asset": {
    "generator": "Substance Painter 6.1.1",
    "version": "2.0"
  },
  "bufferViews": [
    {
      "buffer": 0,
      "byteLength": 912,
      "target": 34963
    },
    {
      "buffer": 0,
      "byteLength": 864,
      "byteOffset": 912,
      "target": 34962
    },
    {
      "buffer": 0,
      "byteLength": 864,
      "byteOffset": 1776,
      "target": 34962
    },
    {
      "buffer": 0,
      "byteLength": 576,
      "byteOffset": 2640,
      "target": 34962
    },
    {
      "buffer": 0,
      "byteLength": 720,
      "byteOffset": 3216,
      "target": 34963
    },
    {
      "buffer": 0,
      "byteLength": 768,
      "byteOffset": 3936,
      "target": 34962
    },
    {
      "buffer": 0,
      "byteLength": 768,
      "byteOffset": 4704,
      "target": 34962
    },
    {
      "buffer": 0,
      "byteLength": 512,
      "byteOffset": 5472,
      "target": 34962
    },
    {
      "buffer": 0,
      "byteLength": 5040,
      "byteOffset": 5984,
      "target": 34963
    },
    {
      "buffer": 0,
      "byteLength": 3000,
      "byteOffset": 11024,
      "target": 34962
    },
    {
      "buffer": 0,
      "byteLength": 3000,
      "byteOffset": 14024,
      "target": 34962
    },
    {
      "buffer": 0,
      "byteLength": 2000,
      "byteOffset": 17024,
      "target": 34962
    },
    {
      "buffer": 0,
      "byteLength": 5040,
      "byteOffset": 19024,
      "target": 34963
    },
    {
      "buffer": 0,
      "byteLength": 3000,
      "byteOffset": 24064,
      "target": 34962
    },
    {
      "buffer": 0,
      "byteLength": 3000,
      "byteOffset": 27064,
      "target": 34962
    },
    {
      "buffer": 0,
      "byteLength": 2000,
      "byteOffset": 30064,
      "target": 34962
    }
  ],
  "buffers": [
    {
      "byteLength": 32064,
      "uri": "door.bin"
    }
  ],
  "images": [
    {
      "uri": "phong1_baseColor.png"
    },
    {
      "uri": "phong1_occlusionRoughnessMetallic.png"
    },
    {
      "uri": "phong1_normal.png"
    }
  ],
  "materials": [
    {
      "alphaMode": "OPAQUE",
      "name": "phong1",
      "normalTexture": {
        "index": 2
      },
      "occlusionTexture": {
        "index": 1
      },
      "pbrMetallicRoughness": {
        "baseColorTexture": {
          "index": 0
        },
        "metallicRoughnessTexture": {
          "index": 1
        }
      }
    }
  ],
  "meshes": [
    {
      "name": "pCube1",
      "primitives": [
        {
          "attributes": {
            "NORMAL": 2,
            "POSITION": 1,
            "TEXCOORD_0": 3
          },
          "indices": 0,
          "material": 0,
          "mode": 4
        }
      ]
    },
    {
      "name": "pCylinder1",
      "primitives": [
        {
          "attributes": {
            "NORMAL": 6,
            "POSITION": 5,
            "TEXCOORD_0": 7
          },
          "indices": 4,
          "material": 0,
          "mode": 4
        }
      ]
    },
    {
      "name": "pSphere1",
      "primitives": [
        {
          "attributes": {
            "NORMAL": 10,
            "POSITION": 9,
            "TEXCOORD_0": 11
          },
          "indices": 8,
          "material": 0,
          "mode": 4
        }
      ]
    },
    {
      "name": "pasted__pSphere1",
      "primitives": [
        {
          "attributes": {
            "NORMAL": 14,
            "POSITION": 13,
            "TEXCOORD_0": 15
          },
          "indices": 12,
          "material": 0,
          "mode": 4
        }
      ]
    }
  ],
  "nodes": [
    {
      "children": [
        1,
        3,
        5,
        7
      ],
      "name": "RootNode"
    },
    {
      "children": [
        2
      ],
      "name": "pCube1",
      "scale": [
        2.0,
        3.66599988937378,
        0.100000001490116
      ]
    },
    {
      "mesh": 0,
      "name": "pCube1"
    },
    {
      "children": [
        4
      ],
      "name": "pCylinder1",
      "rotation": [
        -0.70710676908493,
        0.0,
        0.0,
        0.70710676908493
      ],
      "scale": [
        0.025000000372529,
        0.0832953527569771,
        0.025000000372529
      ],
      "translation": [
        0.219194635748863,
        1.76744556427002,
        0.0
      ]
    },
    {
      "mesh": 1,
      "name": "pCylinder1"
    },
    {
      "children": [
        6
      ],
      "name": "pSphere1",
      "scale": [
        0.0587181597948074,
        0.0510931983590126,
        0.0374237857758999
      ],
      "translation": [
        0.218758523464203,
        1.76699542999268,
        -0.107935227453709
      ]
    },
    {
      "mesh": 2,
      "name": "pSphere1"
    },
    {
      "children": [
        8
      ],
      "name": "group2",
      "translation": [
        0.0,
        0.0,
        0.219762250781059
      ]
    },
    {
      "children": [
        9
      ],
      "name": "pasted__pSphere1",
      "scale": [
        0.0587181597948074,
        0.0510931983590126,
        0.0374237857758999
      ],
      "translation": [
        0.218758523464203,
        1.76699542999268,
        -0.107935227453709
      ]
    },
    {
      "mesh": 3,
      "name": "pasted__pSphere1"
    }
  ],
  "samplers": [
    {
      "magFilter": 9729,
      "minFilter": 9985,
      "wrapS": 10497,
      "wrapT": 10497
    }
  ],
  "scene": 0,
  "scenes": [
    {
      "name": "Scene",
      "nodes": [
        0
      ]
    }
  ],
  "textures": [
    {
      "sampler": 0,
      "source": 0
    },
    {
      "sampler": 0,
      "source": 1
    },
    {
      "sampler": 0,
      "source": 2
    }
  ]
}